<svg width="340" height="281" viewBox="0 0 340 281" fill="none" xmlns="http://www.w3.org/2000/svg">
<path d="M231.263 204.439L228.083 204.765L232.304 260.365L235.483 260.039L231.263 204.439Z" fill="#196CA9"/>
<path d="M118.594 103.599L125.706 102.881L125.998 106.79L114.834 107.916L113.091 84.5931L117.143 84.1842L118.594 103.599ZM134.195 106.285C132.191 106.487 130.578 105.951 129.353 104.676C128.128 103.401 127.419 101.471 127.226 98.8865L127.123 97.5087C126.919 94.7749 127.276 92.614 128.194 91.0256C129.113 89.4373 130.532 88.5462 132.452 88.3526C134.327 88.1635 135.789 88.7205 136.84 90.024C137.891 91.3167 138.527 93.3291 138.749 96.0611L138.916 98.2878L131.156 99.0709C131.307 100.347 131.621 101.262 132.097 101.816C132.573 102.36 133.261 102.587 134.162 102.496C135.466 102.364 136.516 101.736 137.312 100.612L139.047 103.197C138.626 104.014 137.979 104.709 137.105 105.281C136.231 105.843 135.261 106.178 134.195 106.285ZM130.947 95.8965L134.847 95.5028L134.816 95.0861C134.72 94.0521 134.515 93.2822 134.199 92.776C133.883 92.2699 133.386 92.0511 132.706 92.1197C132.026 92.1883 131.551 92.5214 131.281 93.1189C131.02 93.7154 130.909 94.6413 130.947 95.8965ZM152.682 95.9303C152.892 98.7389 152.663 100.887 151.997 102.374C151.329 103.851 150.169 104.673 148.515 104.84C147.219 104.971 146.13 104.398 145.248 103.12L145.252 104.846L141.655 105.21L139.817 80.6048L143.717 80.2112L144.366 88.8934C145.015 87.6656 145.941 86.9914 147.145 86.8699C148.799 86.703 150.064 87.2802 150.94 88.6012C151.816 89.9116 152.363 91.9115 152.582 94.6006L152.682 95.9303ZM148.696 95.1866C148.56 93.3603 148.317 92.1528 147.967 91.5639C147.617 90.9647 147.065 90.7028 146.312 90.7789C145.494 90.8616 144.929 91.3543 144.617 92.2571L145.207 100.155C145.617 100.931 146.254 101.276 147.117 101.188C147.861 101.113 148.355 100.778 148.598 100.184C148.849 99.588 148.923 98.4721 148.82 96.8364L148.696 95.1866ZM159.443 99.6216L165.342 99.0265L165.623 102.791L155.093 103.853L154.881 101.018L159.842 89.7202L154.218 90.2877L153.936 86.5073L164.246 85.4668L164.45 88.2061L159.443 99.6216ZM166.835 93.3722C166.639 90.7449 167.019 88.6303 167.973 87.0274C168.927 85.4249 170.346 84.5286 172.23 84.3384C174.132 84.1466 175.67 84.7443 176.848 86.1317C178.026 87.5194 178.714 89.5373 178.912 92.1856L178.995 93.291C179.191 95.9289 178.817 98.0431 177.872 99.6343C176.926 101.225 175.501 102.117 173.6 102.309C171.689 102.502 170.145 101.909 168.967 100.533C167.799 99.1442 167.116 97.1258 166.919 94.4775L166.835 93.3722ZM170.835 94.1145C171.067 97.2115 171.893 98.6881 173.318 98.5443C174.633 98.4117 175.243 97.0483 175.152 94.4536L175.023 92.5459C174.905 90.9652 174.629 89.8148 174.196 89.0949C173.761 88.3642 173.2 88.0333 172.511 88.1028C171.848 88.1695 171.358 88.6064 171.039 89.4135C170.728 90.2088 170.632 91.3967 170.751 92.977L170.835 94.1145ZM182.232 101.115L180.488 77.7915L185.795 77.256C188.138 77.0195 190.068 77.6965 191.584 79.2865C193.11 80.8756 194 83.1744 194.253 86.183L194.535 89.9636C194.764 93.0282 194.245 95.5071 192.98 97.3994C191.723 99.2801 189.871 100.344 187.427 100.59L182.232 101.115ZM184.834 81.3073L185.991 96.7974L187.205 96.675C188.555 96.5387 189.475 96.0315 189.965 95.1537C190.455 94.2648 190.637 92.8047 190.513 90.7728L190.21 86.72C190.047 84.5417 189.672 83.0517 189.085 82.2501C188.497 81.4379 187.57 81.074 186.309 81.1585L184.834 81.3073ZM204.045 99.2361C202.042 99.4383 200.429 98.9018 199.205 97.6266C197.98 96.3515 197.271 94.4217 197.078 91.8374L196.974 90.4598C196.77 87.7258 197.127 85.5648 198.046 83.9764C198.964 82.3885 200.382 81.4974 202.303 81.3035C204.177 81.1144 205.64 81.6714 206.691 82.9748C207.742 84.2676 208.378 86.2801 208.6 89.0122L208.766 91.2388L201.008 92.0218C201.158 93.2977 201.472 94.2129 201.949 94.7673C202.424 95.3111 203.112 95.5376 204.013 95.4467C205.318 95.315 206.367 94.6872 207.163 93.5633L208.897 96.148C208.478 96.9653 207.83 97.6599 206.957 98.2323C206.082 98.7941 205.112 99.1285 204.045 99.2361ZM200.798 88.8474L204.698 88.4538L204.667 88.0373C204.572 87.0033 204.366 86.233 204.05 85.7269C203.734 85.2209 203.236 85.002 202.558 85.0706C201.878 85.1394 201.402 85.4723 201.132 86.07C200.871 86.6666 200.76 87.5924 200.798 88.8474ZM217.753 91.0742L219.866 73.818L224.387 73.3615L220.341 97.2691L216.122 97.6947L208.633 74.9513L213.127 74.4979L217.753 91.0742Z" fill="#4A5566"/>
<path d="M256.653 28.8135H82.1667V32.6553H256.653V28.8135Z" fill="#4A5566"/>
<path d="M233.577 47.1992L97.2776 62.658L97.5987 66.4816L233.899 51.0229L233.577 47.1992Z" fill="#4A5566"/>
<path d="M242.786 115.803L106.486 131.262L106.807 135.085L243.106 119.626L242.786 115.803Z" fill="#4A5566"/>
<path d="M256.653 154.221H82.1667V158.062H256.653V154.221Z" fill="#4A5566"/>
<path d="M82.1665 28.8135H78.3887V158.062H82.1665V28.8135Z" fill="#4A5566"/>
<path d="M256.653 28.8135H252.875V158.062H256.653V28.8135Z" fill="#4A5566"/>
<path d="M228.757 39.2412L225.014 39.8296L235.043 126.034L238.786 125.446L228.757 39.2412Z" fill="#4A5566"/>
<path d="M105.035 56.8037L101.292 57.3921L111.32 143.597L115.064 143.009L105.035 56.8037Z" fill="#4A5566"/>
<path d="M79.9233 236.669L110.5 228.025L145.326 217.199L165.159 158.062H171.062L157.604 217.199L241.659 204.713L245.438 253.284L160.319 266.867H95.0345L79.9233 236.669Z" fill="#4A5566"/>
<path d="M245.786 208.53L79.3335 241.008L79.6073 242.903L246.06 210.424L245.786 208.53Z" fill="#E3C8BD"/>
<path d="M245.786 217.885L79.3335 250.364L79.6073 252.259L246.06 219.78L245.786 217.885Z" fill="#E3C8BD"/>
<path d="M246.73 225.843L80.2776 258.322L80.5514 260.216L247.004 227.738L246.73 225.843Z" fill="#E3C8BD"/>
<path d="M248.993 234.008L96.5566 263.752L96.8303 265.647L249.267 235.902L248.993 234.008Z" fill="#E3C8BD"/>
<path d="M247.908 242.624L135.319 264.593L135.592 266.488L248.182 244.518L247.908 242.624Z" fill="#E3C8BD"/>
<path d="M92.2346 229.41L89.25 230.727L102.162 270.241L105.147 268.924L92.2346 229.41Z" fill="#E3C8BD"/>
<path d="M231.263 204.439L228.083 204.765L232.304 260.365L235.483 260.039L231.263 204.439Z" fill="#E3C8BD"/>
<path d="M204.819 208.28L201.639 208.607L205.86 264.205L209.039 263.88L204.819 208.28Z" fill="#E3C8BD"/>
<path d="M218.042 206.085L214.861 206.411L219.081 262.011L222.262 261.685L218.042 206.085Z" fill="#E3C8BD"/>
<path d="M115.137 222.824L112.153 224.141L125.064 263.656L128.049 262.337L115.137 222.824Z" fill="#E3C8BD"/>
<path d="M104.985 226.941L102 228.258L114.073 265.204L117.058 263.887L104.985 226.941Z" fill="#E3C8BD"/>
<path d="M191.833 209.104L188.654 209.43L192.874 265.03L196.053 264.704L191.833 209.104Z" fill="#E3C8BD"/>
<path d="M179.555 211.848L176.374 212.174L179.771 256.934L182.952 256.608L179.555 211.848Z" fill="#E3C8BD"/>
<path d="M166.805 214.593L163.625 214.918L167.022 259.677L170.203 259.351L166.805 214.593Z" fill="#E3C8BD"/>
<path d="M129.475 217.061L126.319 217.625L132.19 262.037L135.346 261.475L129.475 217.061Z" fill="#E3C8BD"/>
<path d="M151.193 198.019L148.013 198.346L152.856 262.147L156.036 261.821L151.193 198.019Z" fill="#E3C8BD"/>
<path d="M140.833 215.141L137.653 215.467L141.05 260.227L144.23 259.901L140.833 215.141Z" fill="#E3C8BD"/>
</svg>
